<?xml version="1.0" encoding="utf-8"?>
<!-- Generator: Adobe Illustrator 25.2.0, SVG Export Plug-In . SVG Version: 6.00 Build 0)  -->
<svg version="1.1" id="Layer_1" xmlns="http://www.w3.org/2000/svg" xmlns:xlink="http://www.w3.org/1999/xlink" x="0px" y="0px"
	 viewBox="0 0 1280 524" style="enable-background:new 0 0 1280 524;" xml:space="preserve">
<style type="text/css">
	.st0{fill:#FFFFFF;}
	.st1{fill:none;stroke:#000000;stroke-linecap:round;stroke-linejoin:round;stroke-miterlimit:10;}
</style>
<g>
	<path class="st0" d="M1280,524c-426.67,0-853.33,0-1280,0C0,349.33,0,174.67,0,0c426.67,0,853.33,0,1280,0
		C1280,174.67,1280,349.33,1280,524z M805.59,223.3c-0.66-94.31-75.61-170.41-171.08-169.98c-96.21,0.43-169.8,77.84-169.62,170.34
		c0.19,97.4,80.62,170.55,171.73,169.79C726.34,392.7,805.09,320.38,805.59,223.3z M417.18,470.18c0-9.38,0-18.13,0-26.88
		c0.25-0.09,0.49-0.18,0.74-0.28c4.07,7.49,8.14,14.98,12.23,22.5c1.74-0.08,3.02-0.15,4.42-0.21c3.99-7.28,7.9-14.42,11.81-21.56
		c0.3,0.1,0.6,0.2,0.9,0.31c0,8.59,0,17.18,0,25.98c2.23,0,4.08,0,5.93,0c0-12.85,0-25.29-0.01-37.73c0-0.14-0.16-0.28-0.26-0.41
		c-0.1-0.13-0.23-0.24-0.32-0.34c-1.99,0-3.96,0-6.28,0c-4.6,8.53-9.2,17.06-14.05,26.04c-4.94-9.07-9.6-17.63-14.11-25.91
		c-2.63,0-4.71,0-6.75,0c0,13.05,0,25.75,0,38.49C413.4,470.18,415,470.18,417.18,470.18z M635.75,470.15
		c0-6.75,0.34-13.22-0.1-19.64c-0.41-5.85-5.32-9.38-10.9-8.07c-2.61,0.61-4.96,2.36-7.58,3.68c-4.77-5.06-6.79-5.25-13.98-0.88
		c-1.22-2.74-3.42-2.58-5.99-1.97c0,9.02,0,17.9,0,26.87c2.08,0,3.83,0,5.99,0c0-6.9,0-13.5,0-19.94c1.06-0.92,1.71-1.72,2.56-2.18
		c3.82-2.09,6.96-0.39,7.36,3.94c0.12,1.32,0.06,2.66,0.06,3.99c0.01,4.63,0,9.25,0,14.16c2.29,0,4.16,0,6.48,0
		c0-5.97-0.02-11.6,0.01-17.22c0.01-2.28,0.6-4.36,2.97-5.3c2.44-0.96,4.57-0.47,6.83,2.79c0,5.89,0,12.78,0,19.78
		C631.92,470.15,633.67,470.15,635.75,470.15z M664.39,437c5.81,0,11.38,0,17.33,0c-0.12-2.18-0.2-3.74-0.3-5.66
		c-4.41,0-8.39-0.02-12.36,0c-3.91,0.02-7.82,0.08-11.65,0.12c0,13.33,0,25.91,0,38.61c8.17,0,16.05,0,23.99,0c0-1.81,0-3.21,0-5.08
		c-3.07,0-5.87,0.03-8.68-0.01c-2.77-0.04-5.53-0.14-8.35-0.22c0-3.97,0-7.39,0-11.5c4.61,0,9,0,13.64,0
		c-0.15-2.13-0.25-3.54-0.38-5.32c-2.44,0-4.58,0-6.72,0c-2.12,0-4.23,0-6.53,0C664.39,444.07,664.39,440.84,664.39,437z
		 M785.37,461.3c-1.07,0.63-1.63,0.95-2.19,1.29c-6.59,4.04-13.96,2.92-17.7-2.69c-4.28-6.42-2.98-16.95,2.81-20.77
		c1.71-1.13,4.05-2.06,6.01-1.91c3.52,0.27,6.98,1.42,11.15,2.37c0.59-0.77,1.65-2.14,2.69-3.49c-8.56-7.37-20.88-6.72-27.61,1.14
		c-7.08,8.28-6.01,23.26,2.13,29.83c7.65,6.18,19.63,5.25,25.7-2.22C787.47,463.79,786.54,462.7,785.37,461.3z M562.32,470.16
		c0-5.94,0-11.24,0-16.55c0-0.83,0.01-1.66-0.07-2.49c-0.73-7.18-6.54-10.72-13.25-8.07c-1.28,0.51-2.52,1.11-4.35,1.92
		c0-5.19,0-9.78,0-14.44c-2.31,0-4.18,0-6.07,0c0,13.41,0,26.44,0,39.47c2.18,0,4.05,0,6.21,0c0-6.87,0-13.31,0-19.43
		c2.36-2.87,5.04-4.22,8.19-3.1c3.36,1.2,2.99,4.38,2.99,7.21c-0.01,5.1,0,10.19,0,15.46C558.26,470.16,560,470.16,562.32,470.16z
		 M515.57,470.2c0-4.28,0-8.04,0-11.95c1.03-0.08,2.01-0.42,2.24-0.13c3.35,4,6.61,8.09,9.82,12.08c2.11,0,4.05,0,6.6,0
		c-3.67-5.32-7.02-10.18-10.41-15.1c3.27-3.93,6.4-7.7,9.93-11.94c-2.87,0-4.96,0-7.07,0c-1.7,2.06-3.14,4.11-4.89,5.85
		c-1.66,1.66-2.3,5.08-6.32,3.92c0-7.46,0-14.87,0-22.43c-2.31,0-4.18,0-6.16,0c0,13.38,0,26.41,0,39.7
		C511.32,470.2,513.08,470.2,515.57,470.2z M737.47,457.24c1.08-7.06-1.14-11.83-6.03-13.94c-5.42-2.35-11.79-0.88-15.44,3.55
		c-4.59,5.58-4.05,15.64,1.11,20.64c5.3,5.13,14.41,4.84,20.55-0.93c-0.93-0.99-1.87-1.99-2.69-2.86
		c-10.29,4.38-15.23,2.28-15.06-6.45C725.67,457.24,731.45,457.24,737.47,457.24z M864.37,457.24c-0.39-3.08-0.36-5.27-0.98-7.26
		c-1.59-5.15-6.39-8.14-12-7.78c-5.99,0.38-10.69,4.35-12.07,10.2c-1.51,6.39,0.83,13.35,5.55,16.51
		c4.97,3.33,12.37,2.91,17.81-1.06c0.38-0.27,0.57-0.79,0.92-1.29c-0.51-0.66-0.96-1.35-1.51-1.95c-0.32-0.34-0.8-0.52-1.16-0.74
		c-10.62,3.98-14.5,2.42-15.25-6.63C851.61,457.24,857.52,457.24,864.37,457.24z M475.48,454.58c-1.91,0.24-3.6,0.23-5.15,0.68
		c-2.84,0.84-5.89,1.49-8.32,3.04c-3.98,2.55-4.02,8.36-0.41,11.09c2.57,1.95,5.57,2.28,8.55,1.19c1.99-0.73,3.8-1.94,5.72-2.96
		c2.31,2.73,2.31,2.73,6.15,2.08c0-4.39,0.01-8.86,0-13.33c0-1.66,0.06-3.34-0.12-4.99c-0.6-5.71-4.69-9.32-10.48-9.2
		c-3.57,0.07-6.9,1.1-9.82,3.22c-0.38,0.28-0.63,0.74-1.05,1.26c0.55,0.81,1.04,1.67,1.68,2.39c0.29,0.33,0.88,0.4,1.28,0.56
		C472.8,445.47,475.48,446.46,475.48,454.58z M813.9,469.91c0-6.57,0.32-13.2-0.18-19.76c-0.16-2.13-2.04-4.62-3.84-6.04
		c-4.62-3.64-12.77-2.08-16.95,2.89c0.31,0.52,0.57,1.15,1.01,1.61c0.43,0.46,1.04,0.74,1.62,1.13c1.3-0.61,2.47-1.22,3.69-1.72
		c5.75-2.4,8.76-0.12,8.26,6.64c-1.71,0.19-3.58,0.14-5.28,0.64c-2.83,0.84-5.74,1.71-8.28,3.16c-2.28,1.3-3.2,3.77-2.71,6.5
		c0.51,2.87,2.18,4.79,4.97,5.68c2.86,0.92,5.62,0.5,8.22-0.86c1.29-0.68,2.46-1.59,3.67-2.39
		C810.25,470.25,810.25,470.25,813.9,469.91z M571.34,449.88c1.61-0.74,2.94-1.39,4.3-1.97c2.24-0.96,4.58-1.41,6.59,0.31
		c1.96,1.67,2.14,3.91,1.33,6.46c-1.94,0.22-3.82,0.15-5.52,0.68c-2.82,0.87-5.88,1.63-8.18,3.33c-4.17,3.08-3.24,9.29,1.38,11.52
		c3.09,1.49,6.17,1.15,9.14-0.33c1.31-0.65,2.48-1.6,4.02-2.62c1.08,2.71,2.79,4.01,5.78,2.5c0-6.1,0.23-12.07-0.06-18.02
		c-0.3-6.24-4.81-10.17-11.04-9.41c-3.18,0.39-6.21,2.04-9.28,3.2c-0.36,0.14-0.54,0.77-0.96,1.4
		C569.64,447.88,570.46,448.84,571.34,449.88z M705.17,443.09c-2.4,5.92-4.67,11.49-7.24,17.83c-2.78-6.58-5.15-12.18-7.49-17.74
		c-2.36,0-4.29,0-6.78,0c3.81,8.76,7.44,17.08,10.97,25.2c-1.65,3.63-3.15,6.91-4.78,10.5c2.25,0,4.04,0,6.12,0
		c5.08-11.81,10.38-23.47,15.32-35.79C708.89,443.09,707.27,443.09,705.17,443.09z M836.83,448.03c0-1.9,0-3.47,0-5.76
		c-2.06,0.27-3.91,0.14-5.4,0.8c-1.56,0.69-2.79,2.13-4.27,3.34c-0.5-1.13-0.96-2.15-1.44-3.23c-1.54,0-2.97,0-4.55,0
		c0,9.13,0,18,0,26.93c2.08,0,3.81,0,5.98,0c0-4.78-0.04-9.23,0.01-13.69c0.06-5.79,1.94-7.75,7.62-8.08
		C835.27,448.31,835.75,448.2,836.83,448.03z M488.6,443.15c0,4.72,0,9.16,0,13.6c0,4.43,0,8.85,0,13.32c2.4,0,4.27,0,6.46,0
		c0-5.17-0.08-9.96,0.02-14.74c0.1-4.53,2.18-6.62,6.61-6.99c0.93-0.08,1.86-0.22,2.98-0.36c0-1.88,0-3.44,0-5.03
		c-4.43-2.01-6.89,1.02-9.66,3.54c-0.62-1.35-1.08-2.34-1.64-3.54C491.84,443,490.41,443.07,488.6,443.15z"/>
	<path d="M805.59,223.3c-0.49,97.08-79.24,169.4-168.97,170.15c-91.11,0.77-171.54-72.39-171.73-169.79
		c-0.18-92.5,73.41-169.91,169.62-170.34C729.98,52.89,804.93,128.99,805.59,223.3z M798.16,223.61
		c0.1-89.94-72.8-162.86-162.89-162.95c-89.91-0.09-163.14,72.94-163.18,162.75c-0.04,89.51,72.91,162.45,162.73,162.69
		C724.8,386.35,798.06,313.47,798.16,223.61z"/>
	<path d="M417.18,470.18c-2.18,0-3.78,0-5.74,0c0-12.74,0-25.44,0-38.49c2.04,0,4.13,0,6.75,0c4.51,8.28,9.17,16.84,14.11,25.91
		c4.85-8.98,9.44-17.51,14.05-26.04c2.32,0,4.29,0,6.28,0c0.09,0.09,0.21,0.21,0.32,0.34c0.1,0.13,0.26,0.27,0.26,0.41
		c0.01,12.44,0.01,24.88,0.01,37.73c-1.85,0-3.7,0-5.93,0c0-8.8,0-17.39,0-25.98c-0.3-0.1-0.6-0.2-0.9-0.31
		c-3.91,7.14-7.82,14.28-11.81,21.56c-1.4,0.07-2.68,0.13-4.42,0.21c-4.09-7.52-8.16-15.01-12.23-22.5
		c-0.25,0.09-0.49,0.18-0.74,0.28C417.18,452.05,417.18,460.8,417.18,470.18z"/>
	<path d="M635.75,470.15c-2.08,0-3.83,0-6.29,0c0-7,0-13.9,0-19.78c-2.26-3.26-4.38-3.75-6.83-2.79c-2.37,0.93-2.96,3.02-2.97,5.3
		c-0.03,5.63-0.01,11.25-0.01,17.22c-2.32,0-4.18,0-6.48,0c0-4.91,0-9.53,0-14.16c0-1.33,0.06-2.67-0.06-3.99
		c-0.4-4.34-3.53-6.03-7.36-3.94c-0.84,0.46-1.5,1.26-2.56,2.18c0,6.45,0,13.05,0,19.94c-2.17,0-3.91,0-5.99,0
		c0-8.97,0-17.85,0-26.87c2.57-0.62,4.77-0.77,5.99,1.97c7.18-4.37,9.21-4.17,13.98,0.88c2.62-1.31,4.96-3.06,7.58-3.68
		c5.59-1.31,10.5,2.22,10.9,8.07C636.09,456.93,635.75,463.4,635.75,470.15z"/>
	<path d="M664.39,437c0,3.84,0,7.07,0,10.95c2.29,0,4.41,0,6.53,0c2.14,0,4.28,0,6.72,0c0.13,1.78,0.23,3.19,0.38,5.32
		c-4.65,0-9.03,0-13.64,0c0,4.11,0,7.53,0,11.5c2.81,0.08,5.58,0.18,8.35,0.22c2.8,0.04,5.6,0.01,8.68,0.01c0,1.86,0,3.27,0,5.08
		c-7.93,0-15.82,0-23.99,0c0-12.69,0-25.27,0-38.61c3.82-0.04,7.73-0.1,11.65-0.12c3.97-0.02,7.95,0,12.36,0
		c0.1,1.92,0.18,3.47,0.3,5.66C675.77,437,670.2,437,664.39,437z"/>
	<path d="M785.37,461.3c1.18,1.4,2.1,2.49,2.99,3.54c-6.07,7.47-18.05,8.4-25.7,2.22c-8.14-6.58-9.21-21.56-2.13-29.83
		c6.72-7.86,19.05-8.51,27.61-1.14c-1.04,1.35-2.1,2.72-2.69,3.49c-4.17-0.94-7.63-2.1-11.15-2.37c-1.96-0.15-4.3,0.78-6.01,1.91
		c-5.79,3.82-7.09,14.36-2.81,20.77c3.74,5.61,11.11,6.73,17.7,2.69C783.73,462.25,784.3,461.93,785.37,461.3z"/>
	<path d="M562.32,470.16c-2.31,0-4.05,0-6.36,0c0-5.27-0.01-10.37,0-15.46c0-2.83,0.37-6.01-2.99-7.21
		c-3.15-1.13-5.83,0.23-8.19,3.1c0,6.12,0,12.56,0,19.43c-2.16,0-4.03,0-6.21,0c0-13.03,0-26.06,0-39.47c1.89,0,3.76,0,6.07,0
		c0,4.66,0,9.25,0,14.44c1.82-0.81,3.07-1.42,4.35-1.92c6.72-2.65,12.53,0.88,13.25,8.07c0.08,0.82,0.07,1.66,0.07,2.49
		C562.32,458.91,562.32,464.22,562.32,470.16z"/>
	<path d="M515.57,470.2c-2.5,0-4.25,0-6.26,0c0-13.29,0-26.32,0-39.7c1.98,0,3.85,0,6.16,0c0,7.56,0,14.97,0,22.43
		c4.02,1.16,4.65-2.26,6.32-3.92c1.75-1.74,3.19-3.79,4.89-5.85c2.11,0,4.2,0,7.07,0c-3.52,4.24-6.66,8.01-9.93,11.94
		c3.39,4.92,6.74,9.78,10.41,15.1c-2.55,0-4.48,0-6.6,0c-3.22-3.99-6.47-8.07-9.82-12.08c-0.24-0.28-1.21,0.05-2.24,0.13
		C515.57,462.16,515.57,465.92,515.57,470.2z"/>
	<path d="M737.47,457.24c-6.02,0-11.8,0-17.56,0c-0.17,8.73,4.76,10.83,15.06,6.45c0.82,0.87,1.75,1.87,2.69,2.86
		c-6.14,5.77-15.25,6.06-20.55,0.93c-5.16-5-5.7-15.06-1.11-20.64c3.65-4.43,10.02-5.89,15.44-3.55
		C736.33,445.41,738.55,450.18,737.47,457.24z M731.83,453.17c-0.39-4.47-1.87-6-5.6-6.01c-3.82-0.01-5.51,1.61-6.14,6.01
		C724.02,453.17,727.91,453.17,731.83,453.17z"/>
	<path d="M864.37,457.24c-6.84,0-12.76,0-18.69,0c0.76,9.05,4.63,10.61,15.25,6.63c0.35,0.22,0.84,0.4,1.16,0.74
		c0.56,0.59,1.01,1.28,1.51,1.95c-0.35,0.5-0.54,1.01-0.92,1.29c-5.44,3.97-12.84,4.39-17.81,1.06c-4.72-3.16-7.06-10.13-5.55-16.51
		c1.38-5.85,6.08-9.81,12.07-10.2c5.61-0.36,10.42,2.63,12,7.78C864,451.97,863.98,454.16,864.37,457.24z M845.96,453.05
		c4.04,0,8.03,0,12.1,0c-0.88-4.51-2.18-5.8-5.61-5.89C848.7,447.05,846.99,448.57,845.96,453.05z"/>
	<path d="M475.48,454.58c0-8.12-2.68-9.11-11.97-4.96c-0.4-0.16-0.99-0.23-1.28-0.56c-0.64-0.72-1.12-1.58-1.68-2.39
		c0.42-0.52,0.67-0.98,1.05-1.26c2.92-2.12,6.24-3.15,9.82-3.22c5.79-0.11,9.88,3.49,10.48,9.2c0.17,1.65,0.11,3.32,0.12,4.99
		c0.01,4.47,0,8.93,0,13.33c-3.84,0.66-3.84,0.66-6.15-2.08c-1.92,1.01-3.73,2.23-5.72,2.96c-2.97,1.09-5.97,0.76-8.55-1.19
		c-3.61-2.74-3.57-8.54,0.41-11.09c2.43-1.56,5.48-2.21,8.32-3.04C471.88,454.81,473.57,454.82,475.48,454.58z M475.43,459.18
		c-4.29,0.22-8.38-0.41-10.49,4c2.99,4.07,5.59,4.09,10.55,0.25c0.07-0.5,0.23-1.14,0.24-1.78
		C475.73,461.01,475.58,460.38,475.43,459.18z"/>
	<path d="M813.9,469.91c-3.65,0.34-3.65,0.34-5.8-2.51c-1.21,0.8-2.38,1.72-3.67,2.39c-2.6,1.36-5.35,1.78-8.22,0.86
		c-2.8-0.89-4.46-2.81-4.97-5.68c-0.48-2.73,0.44-5.2,2.71-6.5c2.54-1.45,5.45-2.33,8.28-3.16c1.7-0.5,3.57-0.45,5.28-0.64
		c0.5-6.76-2.51-9.04-8.26-6.64c-1.22,0.51-2.4,1.12-3.69,1.72c-0.58-0.39-1.19-0.68-1.62-1.13c-0.44-0.46-0.7-1.1-1.01-1.61
		c4.18-4.97,12.33-6.53,16.95-2.89c1.81,1.42,3.68,3.91,3.84,6.04C814.21,456.71,813.9,463.34,813.9,469.91z M797.02,463.14
		c3.22,4.11,5.82,4.08,10.88,0.05c-0.1-1.13-0.23-2.5-0.37-3.96C803.34,459.28,799.5,458.92,797.02,463.14z"/>
	<path d="M571.34,449.88c-0.88-1.04-1.7-1.99-2.51-2.95c0.42-0.64,0.6-1.26,0.96-1.4c3.07-1.16,6.1-2.81,9.28-3.2
		c6.23-0.77,10.74,3.17,11.04,9.41c0.29,5.95,0.06,11.92,0.06,18.02c-2.99,1.51-4.71,0.22-5.78-2.5c-1.54,1.02-2.71,1.97-4.02,2.62
		c-2.96,1.48-6.05,1.82-9.14,0.33c-4.61-2.23-5.54-8.45-1.38-11.52c2.3-1.7,5.36-2.46,8.18-3.33c1.7-0.53,3.58-0.46,5.52-0.68
		c0.81-2.55,0.62-4.79-1.33-6.46c-2.01-1.71-4.35-1.27-6.59-0.31C574.28,448.49,572.95,449.13,571.34,449.88z M573.26,462.94
		c1.07,3.43,3.34,3.52,5.45,3.1c1.82-0.36,3.51-1.4,5.03-2.04c0-1.88,0-3.13,0-4.64C579.57,459.18,575.69,458.84,573.26,462.94z"/>
	<path d="M705.17,443.09c2.1,0,3.72,0,6.12,0c-4.94,12.32-10.25,23.98-15.32,35.79c-2.08,0-3.87,0-6.12,0
		c1.63-3.59,3.13-6.87,4.78-10.5c-3.54-8.12-7.16-16.44-10.97-25.2c2.49,0,4.42,0,6.78,0c2.35,5.56,4.72,11.16,7.49,17.74
		C700.5,454.58,702.76,449.01,705.17,443.09z"/>
	<path d="M836.83,448.03c-1.08,0.16-1.57,0.28-2.06,0.31c-5.67,0.33-7.56,2.29-7.62,8.08c-0.04,4.45-0.01,8.91-0.01,13.69
		c-2.17,0-3.9,0-5.98,0c0-8.93,0-17.8,0-26.93c1.58,0,3.01,0,4.55,0c0.48,1.08,0.94,2.1,1.44,3.23c1.49-1.21,2.71-2.65,4.27-3.34
		c1.5-0.66,3.34-0.53,5.4-0.8C836.83,444.56,836.83,446.13,836.83,448.03z"/>
	<path d="M488.6,443.15c1.81-0.08,3.24-0.14,4.77-0.21c0.55,1.2,1.01,2.19,1.64,3.54c2.77-2.51,5.23-5.55,9.66-3.54
		c0,1.58,0,3.15,0,5.03c-1.12,0.14-2.05,0.28-2.98,0.36c-4.43,0.37-6.51,2.47-6.61,6.99c-0.1,4.78-0.02,9.57-0.02,14.74
		c-2.18,0-4.05,0-6.46,0c0-4.47,0-8.89,0-13.32C488.6,452.31,488.6,447.87,488.6,443.15z"/>
	<path class="st0" d="M798.16,223.61c-0.1,89.86-73.36,162.74-163.33,162.49c-89.82-0.25-162.78-73.18-162.73-162.69
		c0.04-89.81,73.27-162.84,163.18-162.75C725.35,60.75,798.25,133.68,798.16,223.61z M528.09,222.81c1.82,2.01,2.84,3.31,4.03,4.44
		c18.55,17.56,39.31,31.67,63.45,40.57c28.46,10.49,56.66,9.83,84.81-1.26c19.92-7.85,37.46-19.4,53.54-33.31
		c3.57-3.09,6.84-6.55,10.4-9.99c-20.08-20.07-42.27-35.6-68.45-44.94c-25.3-9.04-50.76-9.47-76.39-0.92
		c-18.7,6.24-35.51,15.85-50.96,27.87C541.6,210.65,535.18,216.69,528.09,222.81z"/>
	<path class="st0" d="M731.83,453.17c-3.92,0-7.82,0-11.74,0c0.63-4.4,2.32-6.02,6.14-6.01
		C729.96,447.17,731.45,448.7,731.83,453.17z"/>
	<path class="st0" d="M845.96,453.05c1.03-4.48,2.73-6,6.49-5.89c3.43,0.09,4.73,1.38,5.61,5.89
		C854,453.05,850,453.05,845.96,453.05z"/>
	<path class="st0" d="M475.43,459.18c0.15,1.21,0.3,1.84,0.3,2.47c-0.01,0.64-0.17,1.28-0.24,1.78c-4.96,3.84-7.56,3.82-10.55-0.25
		C467.05,458.77,471.13,459.39,475.43,459.18z"/>
	<path class="st0" d="M797.02,463.14c2.48-4.22,6.32-3.87,10.52-3.91c0.14,1.47,0.26,2.83,0.37,3.96
		C802.84,467.23,800.24,467.25,797.02,463.14z"/>
	<path class="st0" d="M573.26,462.94c2.44-4.11,6.31-3.76,10.48-3.58c0,1.51,0,2.75,0,4.64c-1.52,0.64-3.21,1.68-5.03,2.04
		C576.6,466.47,574.33,466.38,573.26,462.94z"/>
	<path d="M528.09,222.81c7.08-6.12,13.51-12.15,20.44-17.54c15.45-12.02,32.26-21.63,50.96-27.87c25.63-8.55,51.09-8.11,76.39,0.92
		c26.18,9.35,48.37,24.88,68.45,44.94c-3.56,3.44-6.83,6.9-10.4,9.99c-16.08,13.91-33.63,25.46-53.54,33.31
		c-28.16,11.09-56.36,11.75-84.81,1.26c-24.14-8.9-44.89-23.01-63.45-40.57C530.94,226.12,529.91,224.82,528.09,222.81z
		 M636.37,179.39c0-0.1,0-0.21,0-0.31c-3.66,0.21-7.36,0.14-10.96,0.72c-3.56,0.57-7.39,1.14-10.46,2.84
		c-16.04,8.9-24.51,22.72-24.45,41.07c0.06,18.21,8.99,31.53,24.53,40.63c1.54,0.9,3.36,1.55,5.13,1.83
		c10.77,1.72,21.57,1.72,32.34,0c1.6-0.26,3.17-0.99,4.64-1.73c24.12-12.16,33.58-42.66,17.86-66.42
		c-7.53-11.37-17.56-19.04-32.12-18.64C640.7,179.44,638.53,179.39,636.37,179.39z M603.42,185.09c-14.56,1.98-48.77,22.54-63.33,38
		c11.19,13.73,51.6,37.83,63.35,37.78C581.74,242.01,579.39,206.98,603.42,185.09z M669.1,185.19
		c11.18,10.46,17.27,23.14,17.28,38.45c0.01,15.35-6.33,27.95-17.52,38.4c24.49-7.85,45.2-21.57,64.39-38.71
		C714.19,206.14,693.43,192.8,669.1,185.19z"/>
	<path class="st0" d="M636.37,179.39c2.16,0,4.33,0.05,6.49-0.01c14.56-0.4,24.6,7.27,32.12,18.64
		c15.72,23.76,6.26,54.26-17.86,66.42c-1.47,0.74-3.04,1.47-4.64,1.73c-10.77,1.72-21.57,1.72-32.34,0
		c-1.77-0.28-3.59-0.93-5.13-1.83c-15.53-9.1-24.47-22.42-24.53-40.63c-0.06-18.35,8.41-32.17,24.45-41.07
		c3.07-1.71,6.9-2.27,10.46-2.84c3.6-0.58,7.3-0.51,10.96-0.72C636.37,179.18,636.37,179.28,636.37,179.39z M645.38,202.1
		c-12.97-3.81-23.3,0.36-29.14,11.41c-4.76,8.99-2.16,21.1,6,28.03c8.16,6.92,20.67,7.23,29.09,0.72
		c8.59-6.64,11.61-17.99,7.16-26.91c-4.32,7.73-7.96,10.19-13.58,9.19c-4.67-0.83-8.36-4.72-8.99-9.47
		C635.2,209.53,637.94,205.63,645.38,202.1z"/>
	<path class="st0" d="M603.42,185.09c-24.03,21.89-21.68,56.92,0.02,75.78c-11.76,0.05-52.16-24.05-63.35-37.78
		C554.65,207.63,588.86,187.07,603.42,185.09z"/>
	<path class="st0" d="M669.1,185.19c24.33,7.61,45.09,20.95,64.15,38.14c-19.18,17.15-39.89,30.87-64.39,38.71
		c11.19-10.44,17.52-23.05,17.52-38.4C686.38,208.33,680.29,195.65,669.1,185.19z"/>
	<path d="M645.38,202.1c-7.44,3.53-10.18,7.43-9.46,12.96c0.62,4.75,4.31,8.64,8.99,9.47c5.62,1,9.26-1.46,13.58-9.19
		c4.45,8.92,1.43,20.27-7.16,26.91c-8.42,6.51-20.93,6.2-29.09-0.72c-8.17-6.93-10.76-19.03-6-28.03
		C622.08,202.45,632.41,198.28,645.38,202.1z"/>
	<path class="st1" d="M802,223.07c-0.17-1.83-0.45-3.66-0.48-5.49c-0.3-18.5-4.29-36.12-10.82-53.47
		c-5.12-13.6-11.84-26.15-20.26-37.81c-14.02-19.43-31.45-35.04-52.34-47.12c-13.67-7.91-28.16-13.43-43.17-17.55
		c-6.53-1.8-13.41-3.24-20.43-3.32c-6.01-0.07-11.99-1.22-18-1.34c-11.12-0.23-22.06,1.3-33.03,3.26
		c-12.15,2.18-23.68,5.98-34.95,10.69c-12.21,5.1-23.53,11.81-34.03,19.9c-14.84,11.45-27.48,24.88-38.06,40.39
		c-9.11,13.34-15.68,27.9-20.69,43.05c-2.68,8.11-4.23,16.71-5.46,25.34c-1.59,11.16-2.4,22.33-1.59,33.45
		c0.72,9.89,2.32,19.72,4.6,29.51c4.53,19.43,12.43,37.36,23.41,53.71c8.13,12.1,17.67,23.29,29.19,32.7
		c9.81,8.01,19.96,15.36,31.1,21.33c10.2,5.47,20.83,9.93,32.01,12.94c7.23,1.95,14.52,3.59,21.97,4.65
		c8.32,1.19,16.62,1.91,25.02,1.92c9.62,0,19.05-1.3,28.53-2.88c8.53-1.42,16.86-3.37,24.95-6.2c16.79-5.86,32.37-14.04,46.54-24.86
		c8.48-6.47,16.3-13.67,23.41-21.55c12.17-13.48,21.97-28.61,29.01-45.38c4.52-10.76,8.05-21.83,10.17-33.39
		c1.79-9.78,3.28-19.51,2.91-29.47c-0.03-0.83,0.29-1.67,0.42-2.39c0.56-0.13,1.06-0.24,1.55-0.35"/>
	<path class="st1" d="M665.5,181.15c0,1.16,0,2.33,0,4.01c12.13,9.85,19.11,22.65,19.02,38.91c-0.09,16.21-7.93,28.49-19.52,38.36
		c0,1.56,0,2.56,0,3.56"/>
	<path class="st1" d="M607,181.15c-0.13,1.5-0.26,3-0.39,4.5c-8.9,7.01-14.8,15.98-16.96,26.96c-1.02,5.16-1.76,10.35-0.96,15.99
		c1.17,8.28,3.9,15.58,8.38,22.37c1.6,2.43,3.73,4.61,5.99,6.47c2.64,2.17,3.69,4.85,3.95,8.05"/>
	<path class="st1" d="M535,223.57c2.72,5.16,7.86,7.83,12.05,11.42c9.45,8.11,19.86,14.89,30.99,20.44
		c7.47,3.72,15.08,7.48,23.04,9.78c4.94,1.43,9.95,2.95,14.96,4.1c10.14,2.33,20.55,3,30.96,1.65c5.54-0.72,10.94-1.65,16.09-4.3
		c2.64-1.36,6.44-0.27,9.37-1.28c14.28-4.91,27.6-11.86,39.98-20.43c9.14-6.33,18.06-13.03,25.54-21.39
		c-2.66-5.32-7.74-8.33-12.09-11.86c-7.81-6.34-16.02-12.22-24.89-17.11c-9.5-5.24-18.98-10.99-29.58-13.14
		c-7.56-1.54-14.51-5.41-22.44-5.36c-3.66,0.02-7.35-0.5-10.99-1.02c-0.83-0.12-1.51-1.25-2.26-1.92"/>
	<path class="st1" d="M636,174.67c-2.17,0.33-4.33,0.91-6.5,0.95c-6.07,0.1-11.93,0.74-17.55,3.44c-2.36,1.13-5.27,1.38-7.95,1.55
		c-6.18,0.39-11.64,3.2-16.91,5.73c-14.51,6.96-28.43,15.04-40.59,25.77c-3.97,3.51-7.95,7.02-12.43,10.98c-0.57,0-2.07,0-3.57,0"/>
	<path class="st1" d="M784.5,438.66c-0.5-1.92-1.39-3.3-3.48-4.04c-10.43-3.7-21.39,3.89-21.52,15.02
		c-0.11,10.11,2.5,14.1,10.99,17.5c4.88,1.96,9.21,0.78,13.52-1.52c0.79-0.42,1.66-0.68,2.49-1.01"/>
	<path class="st1" d="M645.5,202.11c-5.02-0.06-9.55,1.35-13.5,4.49"/>
	<path class="st1" d="M655,228.06c1.58-4.21,4.11-8.17,3.5-12.98"/>
	<path class="st1" d="M717,455.13c6-0.35,12.08,0.84,18.01-0.88c-0.52-6.96-3.19-9.71-9.01-9.63c-3.1,0.04-5.62,1.29-7.44,3.57
		c-1.55,1.94-3.32,3.92-2.15,6.98c0.55,1.45-0.3,3.41,0.16,4.93c2.56,8.51,9.11,10.83,17.93,6.51"/>
	<path class="st1" d="M843,455.13c6-0.35,12.08,0.84,18.01-0.88c-0.52-6.96-3.19-9.71-9.01-9.63c-3.1,0.04-5.62,1.29-7.44,3.57
		c-1.55,1.94-2.42,3.99-2.39,6.94c0.02,2.6,0.17,5.24,0.98,7.43c1.9,5.12,7.42,7.15,13.35,5.53c1.37-0.37,2.67-0.98,4.01-1.48"/>
	<path class="st1" d="M477.5,456.63c-1,0.17-2.02,0.54-3,0.46c-4.6-0.38-8.49,1.23-12,4.03c-0.22,1.32-0.43,2.64-0.75,4.53
		c1.53,0.95,3.08,2.65,4.76,2.79c2.28,0.18,4.71-0.66,6.97-1.38c1.75-0.56,3.35-1.61,5.02-2.44"/>
	<path class="st1" d="M810,457.13c-2.17,0-4.34-0.07-6.5,0.01c-4.47,0.17-7.35,2.17-9.5,6.47c2.26,5.99,6.69,5.91,11.51,3.51
		c1.6-0.8,3.32-1.35,4.99-2.02"/>
	<path class="st1" d="M559,467.11c0-4.66,0.01-9.32,0-13.97c-0.02-7.3-5.06-10.74-11.41-7.32c-1.78,0.96-3.3,1.25-5.09,1.34"/>
	<path class="st1" d="M679,434.17c-6,0.33-12.08-0.74-18.25,0.78c0,10.69,0,21.17,0,32.4c6.24,0.08,12.5,0.17,18.75,0.26"/>
	<path class="st1" d="M616.5,466.61c0-5.32,0-10.65,0-16.59c-1.5-1.68-3.31-3.7-5.44-6.08c-2.56,1.16-4.78,2.25-7.07,3.17
		c-0.92,0.37-1.99,0.37-2.99,0.53"/>
	<path class="st1" d="M632.5,466.61c0-6.15,0-12.31,0-17.94c-3.11-3.29-6.04-5.05-10.31-3.86c-1.4,1.44-2.79,2.89-4.19,4.33"/>
	<path class="st1" d="M415,435.17c0.17,1,0.81,2.27,0.42,2.95c-2.05,3.53-1.35,7.32-1.4,11.03c-0.08,5.99-0.02,11.98-0.02,17.97"/>
	<path class="st1" d="M449.25,434.67c-0.55,2.19-1.4,4.24,0.15,6.55c0.74,1.11,0.57,2.93,0.58,4.43c0.05,7.15,0.02,14.31,0.02,21.46
		"/>
	<path class="st1" d="M448,438.66c-2.09,0.91-3.53,2.18-4.61,4.44c-2.3,4.83-5.21,9.37-7.9,14.02c-0.83,1.43-1.74,2.82-3,4.87
		c-1.93-2.66-3.68-4.64-4.95-6.89c-2.49-4.4-4.77-8.93-7.02-13.46c-0.99-2.01-2.53-3.2-4.53-3.98"/>
	<path class="st1" d="M811.5,467.61c-0.17-4.49-0.52-8.99-0.46-13.47c0.12-8.17-4.3-11.34-12.05-8.51
		c-1.43,0.52-2.99,0.69-4.49,1.03"/>
	<path class="st1" d="M587.75,468.11c-0.25-5.16-0.59-10.31-0.73-15.47c-0.15-5.58-3.03-8.44-8.52-7.93
		c-1.7,0.16-3.33,0.99-5.01,1.43c-0.98,0.26-2,0.35-3,0.52"/>
	<path class="st1" d="M684.5,444.15c1.34,0.66,2.67,1.32,3.89,1.91c2.83,6.21,4.5,12.86,9.03,18.57c1.39,4.19-1.91,7.68-3.44,11.8
		c-0.99,0.47-2.24,1.06-3.48,1.66"/>
	<path class="st1" d="M479.5,467.61c-0.17-2.33-0.49-4.66-0.46-6.99c0.03-2.17-0.7-4.2-0.23-6.53c0.44-2.16-0.67-4.64-1.05-6.71
		c-4.04-3.36-8.09-3.61-12.25-1.2c-1.69,0.98-3.35,0.3-5.02,0.46"/>
	<path class="st1" d="M512.5,433.67c0,10.98,0,21.96,0,32.94"/>
	<path class="st1" d="M707.5,445.9c-2,4.57-3.89,9.2-6.06,13.7c-0.81,1.67-2.28,3.02-3.44,4.52"/>
	<path class="st1" d="M599.75,445.65c0.08,2,0.23,3.99,0.24,5.99c0.03,5.16,0.01,10.31,0.01,15.47"/>
	<path class="st1" d="M541.5,433.67c0,10.98,0,21.96,0,32.94"/>
	<path class="st1" d="M586,457.13c-3.51,0.2-7.07-0.51-10.52,0.96c-2.84,1.21-5.07,2.74-5.48,6.03c4.07,5.45,6.08,5.82,12.02,2.53
		c1.36-0.75,2.98-1.04,4.48-1.53"/>
	<path class="st1" d="M491.5,445.65c0.41,2.31,0.96,4.47,0.66,7.01c-0.56,4.76-0.16,9.63-0.16,14.45"/>
	<path class="st1" d="M824,446.15c0,6.99,0,13.97,0,20.96"/>
	<path class="st1" d="M533.5,443.65c-1.81,0.72-3.62,1.44-5.88,2.35c-2.17,2.94-4.64,6.28-7.12,9.63"/>
	<path class="st1" d="M675.5,450.64c-4.67,0-9.33,0-14,0"/>
	<path class="st1" d="M513.5,455.63c2.17,0,4.33,0,7.01,0c2.05,2.83,4.61,5.73,6.37,9.05c1.13,2.14,2.82,2.94,4.62,3.93"/>
	<path class="st1" d="M834,445.15c-0.82,0.2-1.65,0.41-3.29,0.81c-1.21,1.3-2.37,4.25-5.71,3.68"/>
</g>
</svg>
